<?xml version="1.0" encoding="UTF-8"?>
<svg width="140px" height="20px" viewBox="0 0 140 20" version="1.1" xmlns="http://www.w3.org/2000/svg" xmlns:xlink="http://www.w3.org/1999/xlink">
    <!-- Generator: Sketch 50.2 (55047) - http://www.bohemiancoding.com/sketch -->
    <title>trailblazer-me</title>
    <desc>Created with Sketch.</desc>
    <defs></defs>
    <g id="Profile" stroke="none" stroke-width="1" fill="none" fill-rule="evenodd">
        <g id="top" transform="translate(-58.000000, -18.000000)" fill-rule="nonzero">
            <g id="trailblazer-me" transform="translate(58.000000, 18.000000)">
                <path d="M35.0806453,5.54610233 C35.0403345,5.17225816 35.1755809,4.80068092 35.4487088,4.53488175 C35.7218367,4.26908259 36.1036592,4.13746512 36.4878112,4.17669435 C37.1265979,4.26782478 37.619712,4.77029009 37.6839022,5.39546745 C37.6390061,6.07943423 37.051296,6.60923162 36.3470946,6.60054647 C36.0331042,6.63499885 35.7185072,6.54105894 35.4784092,6.34115363 C35.2383111,6.14124832 35.0942598,5.85331808 35.0806453,5.54610233 Z M106.395812,15.446922 C106.030407,16.9703161 105.003578,18.2643793 103.58148,18.9936887 C102.323674,19.3234448 100.980491,19.0980755 99.9087773,18.3774551 C98.5016114,16.295955 99.5147708,12.7081061 99.9087773,10.3116421 C99.4491258,10.5646807 98.8721861,10.4860765 98.5016114,10.119925 C98.3046082,10.3116421 97.5447386,13.4201982 97.2351621,14.2281489 C97.0522306,14.7074417 96.9255856,15.0771819 96.8130124,15.3784516 C96.8130124,15.3784516 96.8130124,15.3784516 96.8130124,15.3784516 C96.1971726,17.6076957 94.0591517,19.1110241 91.6909286,18.9799946 C89.9212854,19.0156972 88.2453134,18.2078659 87.2020694,16.81633 L87.0894961,16.81633 C84.0374539,17.8477763 80.9153945,18.6714081 77.7459147,19.2812644 C77.1689767,19.2812644 76.7608986,18.1309617 76.577967,17.3093169 C76.2123865,17.7295364 75.7800843,18.0901384 75.2974461,18.3774551 C74.6414109,18.672754 73.9231173,18.8134963 73.2007689,18.7882775 C71.9294061,18.7547775 70.8782963,17.8137042 70.7382287,16.5835307 C69.7684487,17.6783103 68.4234993,18.3935615 66.9529524,18.5965604 C66.1783194,18.5640252 65.4953343,18.0923318 65.2080668,17.3914814 C64.8473792,17.7655005 64.4463728,18.1006533 64.0119758,18.3911492 C63.0686655,18.9825889 61.9679346,19.2920454 60.8458525,19.2812644 C59.5040292,19.3028866 58.3049727,18.469399 57.8908042,17.2271524 C57.4068453,17.9429883 56.645184,18.4371376 55.7800554,18.5965604 C54.8873069,18.5880785 54.0148066,18.3366723 53.2612285,17.8707742 C52.4185628,18.3847778 51.4413136,18.6510653 50.4468967,18.6376426 C49.6726795,18.6538864 48.9217908,18.3792458 48.3502195,17.8707742 C48.3502195,18.1309617 48.3502195,18.3911492 48.3502195,18.6376426 C47.8436398,18.9252183 47.7029232,19.048465 47.3652034,19.048465 C47.1051323,19.0449767 46.8459889,19.017465 46.5912622,18.9663006 C46.3742569,18.5364678 46.2361513,18.0730199 46.1831841,17.5968926 C45.8262535,17.9654456 45.4300136,18.2959665 45.0011648,18.5828663 C44.0578545,19.174306 42.9571236,19.4837625 41.8350415,19.4729815 C40.4651583,19.4931283 39.2476223,18.6268345 38.8518499,17.3503991 C38.4589379,17.8291936 37.9826427,18.2370868 37.444684,18.5554782 C36.5037303,19.2192372 35.2403074,19.2518794 34.2644891,18.6376426 C34.0059643,18.4101728 33.7956345,18.1357073 33.6453361,17.8296919 C33.3613494,18.1027683 33.0448368,18.3418284 32.702535,18.5417841 C32.0464998,18.837083 31.3282062,18.9778253 30.6058578,18.9526065 C29.3514105,18.8916693 28.3298886,17.9498791 28.1996042,16.7341655 C27.2298242,17.8289452 25.8848748,18.5441964 24.414328,18.7471953 C23.6908261,18.7238165 23.0428014,18.3051586 22.7398006,17.665363 C22.2560886,18.2124349 21.6803295,18.6755009 21.0371299,19.034771 C19.7793236,19.364527 18.4361404,19.1391577 17.3644269,18.4185374 C15.957261,16.3370372 16.9704205,12.7491883 17.3644269,10.3527243 C16.9047755,10.605763 16.3278357,10.5271587 15.957261,10.1610072 C15.7602578,10.3527243 15.0003883,13.4612805 14.6908118,14.2692312 C14.184232,15.6386392 14.0857304,16.1453201 13.4947208,16.5424484 C13.1851443,16.7615537 11.5809752,17.1723761 11.4965452,16.3918135 C12.1438415,15.6660273 12.6504212,14.5705009 13.4806491,11.2976159 C13.7480106,10.2020895 13.4806491,6.75118135 14.4656652,6.65532279 C15.8728311,6.65532279 16.0698343,7.61390838 16.9844921,7.76454326 C18.5886612,8.02473078 19.0248827,6.92920439 20.249117,6.88812215 C20.9386283,6.88812215 21.5014946,8.05211894 21.402993,8.87376372 C21.2692378,9.49145211 21.0663331,10.0930171 20.7979117,10.6676882 C20.1679814,12.3463115 19.8719051,14.1262223 19.9254688,15.9125208 C20.0521138,16.8984945 20.9667716,16.5424484 21.5296379,16.0905438 C21.7162298,15.9348373 21.8902896,15.765448 22.0502893,15.5838628 C22.0312856,15.2920152 22.0312856,14.9992894 22.0502893,14.7074417 C22.0080743,10.9415698 24.3861847,6.91551031 27.9463143,6.91551031 C28.7004506,6.95403534 29.4040517,7.29639616 29.8882032,7.86040182 C29.8882032,7.64129654 30.6199295,7.44957942 30.8732193,7.44957942 C31.3657274,7.44957942 32.0974537,7.58652022 32.0974537,7.92887222 C32.0974537,8.72312885 31.1687242,12.5711653 31.1687242,14.5157246 C31.1687242,15.8851326 31.7456622,16.3096491 32.083382,16.3096491 C32.3241631,16.2835003 32.5529395,16.1934978 32.74475,16.0494616 C32.879604,15.9344713 33.006524,15.8109569 33.1246848,15.6797214 C33.1246848,13.6119153 33.7719811,8.66835253 34.5318506,7.9425663 C34.8273555,7.9425663 36.7973877,7.9425663 36.9381043,8.31230645 C37.3883974,8.94223412 36.0234465,13.9542673 36.0234465,15.5564747 C36.1500914,16.295955 36.5300262,16.4465899 37.4306123,16.0631556 C37.788019,15.8103109 38.0935001,15.4944464 38.3311985,15.1319582 C38.1715973,13.7087195 38.133943,12.2750261 38.2186252,10.8457112 C38.3308787,7.53653954 39.361751,4.31869162 41.2018169,1.53373694 C41.8683573,0.651013611 42.8944807,0.0918032766 44.0161486,0 C45.3529562,0 46.1128258,1.8350067 45.9721092,4.73815162 C45.7559773,8.51471414 44.1819328,12.0970138 41.525465,14.8580766 C41.7224683,15.8577444 41.9898298,16.7615537 43.1718491,16.7341655 C43.8630573,16.7187244 44.5320787,16.4937223 45.0855947,16.0905438 C45.4554643,15.7604823 45.7988745,15.4033966 46.1128258,15.0224056 C46.1128258,14.4335601 46.1128258,13.8721029 46.1831841,13.3654219 C46.3661157,10.6266059 46.6475488,6.66901687 46.8304804,4.42318778 C47.013412,2.17735869 47.1541285,0.616233592 48.6879394,0.616233592 C49.7714571,0.616233592 50.4609684,0.862727029 50.2921085,1.46526654 C49.7068273,3.77153821 49.3208557,6.12142236 49.1382324,8.49032949 L48.9553009,10.0925368 C49.8940902,9.07861624 51.2256635,8.49275585 52.6280038,8.47663541 C53.6167546,8.41026712 54.5849319,8.77349663 55.2720348,9.4685922 C55.9591376,10.1636878 56.2945898,11.1192523 56.1881335,12.0781784 C56.1841093,13.5322287 55.7598743,14.9558553 54.9638992,16.1864023 C55.1163218,16.3379396 55.3230449,16.4262609 55.5408372,16.4328958 C56.3851367,16.4328958 56.9480031,15.77558 57.3279378,15.2141227 C57.158261,13.7733003 57.1158908,12.3209694 57.2012929,10.8730994 C57.3128482,7.56381279 58.3437772,4.34578825 60.1844846,1.5611251 C60.851025,0.67840177 61.8771484,0.119191436 62.9988163,0.0273881596 C64.3356239,0.0273881596 65.0954935,1.86239486 64.9547769,4.76553978 C64.767133,8.55418573 63.2125028,12.157058 60.5644194,14.9402411 C60.7614226,15.9399089 61.0287841,16.8437182 62.2108034,16.81633 C62.8868094,16.7624545 63.5298652,16.5092678 64.0541907,16.0905438 C64.2621836,15.91434 64.4551303,15.7219908 64.6311287,15.5153924 C64.6150761,15.2463021 64.6150761,14.9765321 64.6311287,14.7074417 C64.5607705,10.9415698 66.9388808,6.91551031 70.4990105,6.91551031 C71.2527037,6.95566529 71.9556737,7.29771907 72.4408994,7.86040182 C72.4408994,7.64129654 73.1726256,7.44957942 73.4259155,7.44957942 C73.9184235,7.44957942 74.6501498,7.58652022 74.6501498,7.92887222 C74.6501498,8.72312885 73.7214203,12.5711653 73.7214203,14.5157246 C73.7214203,15.8851326 74.2983583,16.3096491 74.6360781,16.3096491 C74.8768592,16.2835003 75.1056356,16.1934978 75.2974461,16.0494616 C75.6673157,15.7194001 76.0107259,15.3623144 76.3246772,14.9813233 C76.4872787,14.7282092 76.7446199,14.5465203 77.0423318,14.4746424 C77.4222666,14.4746424 77.6333415,14.6800536 77.6474131,15.090876 C79.054579,13.0504581 81.3764027,10.1336191 81.3764027,10.1336191 C81.3764027,10.1336191 76.9016152,10.8594053 76.3950355,10.8594053 C75.899883,10.8089565 75.5106945,10.4244723 75.466306,9.94190195 C75.466306,9.5721618 75.466306,8.84637557 75.9165991,8.57249397 C78.686484,7.93284467 81.5145739,7.56129701 84.3595943,7.4632735 C85.2038939,7.68237878 85.1194639,8.96962228 85.1757506,9.65432627 C85.2320372,10.3390303 80.5883898,16.4055076 80.5883898,16.4055076 C82.5325901,16.130765 84.4554293,15.72815 86.3436982,15.2004286 C86.209104,14.7546564 86.1288138,14.2950342 86.10448,13.8310206 C85.9778351,10.5307474 87.5116459,7.07983927 91.2828505,6.98398071 C92.0157188,6.98692228 92.7155698,7.28097918 93.2203367,7.7980558 C93.7251037,8.31513242 93.9910052,9.01037949 93.9564656,9.72279667 C93.9285884,10.9515082 93.4261839,12.1249251 92.5492997,13.0093758 C91.8582499,13.8804493 91.0856923,14.687289 90.2415477,15.4195339 C90.5890333,16.2572275 91.4550834,16.77844 92.3804398,16.7067774 C93.0314785,16.7234713 93.672983,16.5519104 94.2238271,16.2137905 C95.1391633,14.7109233 95.7505472,13.0514902 96.0249995,11.325004 C96.292361,10.2294776 96.0249995,6.77856951 97.0100156,6.68271095 C98.4171815,6.68271095 98.6141847,7.64129654 99.5288425,7.79193142 C101.090797,8.02473078 101.54109,6.91551031 102.779396,6.91551031 C103.468907,6.91551031 104.031773,8.0795071 103.933272,8.90115188 C103.799626,9.51886888 103.596717,10.1204454 103.32819,10.6950763 C102.69826,12.3736997 102.402184,14.1536105 102.455748,15.9399089 C102.582392,16.9258827 103.49705,16.5698366 104.059917,16.117932 C104.430258,15.7883343 104.773703,15.4312119 105.087148,15.0497937 C105.248633,14.7956678 105.506449,14.6136436 105.804802,14.5431128 C106.255095,14.5157246 106.46617,14.8033003 106.38174,15.433228 L106.395812,15.446922 Z M28.6076823,10.8320171 C28.6076823,10.4759711 28.3825357,9.91451379 28.1433175,9.91451379 C26.7361517,9.91451379 25.2023409,12.2698955 25.2023409,14.762218 C25.2023409,15.3510635 25.2023409,15.5701688 25.5119174,15.5701688 C27.0316565,15.5701688 28.4106791,12.8998232 28.6076823,10.9141816 L28.6076823,10.8320171 Z M41.1455303,12.009708 C42.5473247,10.0324021 43.4841935,7.7787921 43.8895037,5.40916153 C44.0959867,4.54139891 44.0222747,3.63276776 43.6784288,2.80728636 C43.0190622,3.63621305 42.4968053,4.56029204 42.1305464,5.54610233 C41.3708411,7.61694767 41.0408233,9.81388614 41.1596019,12.009708 L41.1455303,12.009708 Z M53.4300884,12.7902706 C53.4892766,12.3335497 53.3521953,11.8733003 53.0512058,11.5181755 C52.7502163,11.1630507 52.3119937,10.9445232 51.8399909,10.9141816 C50.2453447,11.1425908 49.0784528,12.495874 49.1241608,14.06382 C49.1241608,15.5290865 49.8418154,15.9946852 50.7986882,15.9946852 C52.4450722,15.9809912 53.44416,14.06382 53.44416,12.7902706 L53.4300884,12.7902706 Z M60.1281979,12.009708 C61.5304012,10.0326164 62.4673082,7.77891467 62.8721714,5.40916153 C63.0742003,4.53999795 62.995571,3.6313298 62.6470249,2.80728636 C61.9922323,3.63687049 61.4747153,4.56096344 61.1132141,5.54610233 C60.3538722,7.6170357 60.023865,9.81390302 60.1422696,12.009708 L60.1281979,12.009708 Z M71.1603784,10.8320171 C71.1603784,10.4759711 70.9352319,9.91451379 70.6960137,9.91451379 C69.2888478,9.91451379 67.755037,12.2698955 67.755037,14.762218 C67.755037,15.3510635 67.755037,15.5701688 68.0646135,15.5701688 C69.570281,15.5701688 70.9633752,12.8998232 71.1603784,10.9141816 L71.1603784,10.8320171 Z M90.7762707,11.4619448 C91.1733961,10.8672351 91.4282621,10.1933497 91.5220687,9.48999732 C91.5220687,9.24350388 91.3250654,9.13395124 91.2124922,9.13395124 C89.4957498,8.94223412 88.9188118,12.3931422 89.115815,13.4886686 C89.7617028,12.8864072 90.3245758,12.2051474 90.7903424,11.4619448 L90.7762707,11.4619448 Z M14.4093786,5.54610233 C15.0083671,5.60584853 15.6090923,5.44995356 16.0979776,5.10789177 C15.9836495,4.17667 15.5699603,3.30439421 14.9159583,2.61556925 C14.0920023,2.38941463 13.2391195,2.27874827 12.3830597,2.28691133 C11.96091,2.28691133 9.56872797,2.36907581 8.16156209,2.53340477 C6.02266995,2.7798982 2.53289858,3.1907206 0.844299526,4.14930619 C0.436728678,4.33889333 0.130188223,4.68692771 0,5.10789177 C1.22423431,6.16233592 2.36403867,5.88845432 3.51791469,6.16233592 C4.05263773,6.16233592 5.51609024,5.9021484 6.47296304,5.69673721 C6.55593403,6.68105784 6.55593403,7.67033781 6.47296304,8.65465845 C6.47296304,9.76387891 6.34631811,11.9960139 6.31817479,12.6807179 C6.31817479,14.0501259 5.78345176,16.3096491 6.31817479,17.8844682 C6.59463032,18.5256714 7.02391499,19.0936452 7.57055242,19.5414519 C8.01254484,19.619516 8.46536758,19.619516 8.90736,19.5414519 C9.14259816,19.4627056 9.36524721,19.3520631 9.56872797,19.212794 C9.75165953,17.9666327 9.56872797,14.4472542 9.56872797,13.3928101 C9.56872797,12.3383659 9.65315792,9.28458612 9.69537289,8.05211894 C9.75245368,7.14002527 9.75245368,6.22539663 9.69537289,5.31330297 C11.6091185,5.08050361 13.6776523,4.94356282 14.4093786,5.54610233 Z" id="Shape" fill="#003764"></path>
                <path d="M139.274106,14.839623 C138.955808,14.9133454 138.680374,15.1000563 138.505739,15.3604835 C137.72371,16.4009468 136.46133,17.0305658 135.105003,17.0566187 C134.109596,17.1268631 133.179126,16.5877634 132.799902,15.7210791 C133.714609,14.9674082 134.55296,14.1358204 135.304209,13.2369756 C136.265323,12.3333938 136.824799,11.1208319 136.869401,9.84470519 C136.920618,9.10671969 136.64356,8.3818324 136.104216,7.84269832 C135.564873,7.30356423 134.811522,6.99844192 134.023597,7.00000598 C129.982556,7.09349375 128.331989,10.6593843 128.417363,14.0783655 C128.447687,14.6099209 128.55295,15.135358 128.730402,15.6409468 C127.89089,16.5491136 127.3075,16.9764863 126.951774,16.9764863 C125.600017,16.9764863 126.012659,14.4256058 126.112262,13.0900663 C126.211865,11.7545267 126.596049,8.88311672 126.28301,8.49581026 C125.617225,7.86480368 124.764388,7.43664276 123.835619,7.26711389 C123.209542,7.26711389 121.857785,8.21534696 120.733692,9.57759728 C120.747252,9.24826237 120.704007,8.91903538 120.605631,8.60265342 C119.934925,7.89538781 119.043655,7.40467512 118.058637,7.20033691 C116.447152,7.90591511 115.095174,9.04473455 114.174114,10.4724088 C114.174114,9.8179944 114.515611,7.8013297 114.174114,7.8013297 C113.098737,7.69780201 112.012441,7.83039566 111.001043,8.18863617 C110.806857,9.43972471 110.749642,10.7061861 110.830294,11.968213 C110.688004,14.5725151 110.246905,17.5240575 111.171791,19.1133495 C112.01076,19.3054538 112.896708,19.1756738 113.633411,18.7527539 C113.75579,16.9967248 114.085066,15.2588263 114.615214,13.5708605 C115.062547,12.4639586 115.837642,11.5001288 116.84917,10.7929383 C117.13375,10.7929383 117.162208,11.6343282 117.119521,11.9949238 C117.005689,13.7311252 116.635735,18.3654474 117.119521,18.8863078 C117.603308,19.4071682 119.552684,18.8863078 119.965325,18.7794647 C120.189554,17.3325919 120.317862,15.8740482 120.349509,14.4122504 C120.645993,12.9891548 121.442649,11.7005908 122.611923,10.7528721 C122.896504,10.7528721 122.967649,11.594262 122.924962,11.9548576 C122.924962,13.691059 122.754213,17.2970158 123.166855,18.1517611 C123.576445,18.8692941 124.350553,19.3385438 125.215834,19.3938128 C126.070284,19.4025353 126.922124,19.3037158 127.748599,19.0999941 C128.559403,18.7410218 129.234426,18.1586885 129.683746,17.4305697 C130.819875,18.824651 132.595065,19.6279961 134.464697,19.5941438 C137.028863,19.7091161 139.327426,18.1203056 139.971328,15.7878561 C140.099389,15.1467971 139.78635,14.839623 139.274106,14.839623 Z M133.83862,9.27042319 C133.952452,9.27042319 134.108971,9.39062175 134.180117,9.63101886 C134.095856,10.3567504 133.838064,11.0552509 133.425978,11.6743943 C132.922437,12.4435213 132.315038,13.1482984 131.618893,13.7711914 C131.433916,12.609272 132.031534,9.07009226 133.83862,9.27042319 Z" id="Shape" fill="#00A1DF"></path>
                <circle id="Oval" fill="#00A1DF" cx="107.8" cy="18.2" r="1.4"></circle>
            </g>
        </g>
    </g>
</svg>